<svg xmlns="http://www.w3.org/2000/svg" xml:space="preserve" viewBox="0 0 500 500"><path fill="#FFF" d="M501 118v383H1V1h500zM101.869 319.995c6.402-.021 12.805-.043 19.136.88v19.056c13.631 0 26.851 0 40 .944v38.767h19.926c0-13.478 0-26.598.944-39.647 19.731-.024 39.463-.047 59.13.874v19.18h18.788v19.96h-18.445v39.653h18.92v-19.731c6.86 0 13.334 0 19.737.943v19.197h60.055v19.707h39.986v-19.557h19.998v19.821h19.737v19.993h-39.574v39.608h119.468V359.92c-20.131 0-39.937 0-59.675.074 0 0 .073.068.005-.874-.026-6.394-.052-12.788.866-19.124h18.762v-19.654h-19.564c0 6.808 0 13.273-.944 19.664h-18.76v-40.322h19.562c0-13.503 0-26.625.944-39.688h19.223v40.107h20.018v19.636h19.623v-39.877h-19.461v-20.018h19.443v-59.017h-19.9v-39.531H460.3v59.912h19.39v20.018H440.07c0 6.551 0 12.703-.943 18.78-6.399.023-12.797.046-19.13-.875v-17.782h-19.927c0 6.474 0 12.6-.943 18.656-6.398-.028-12.796-.056-19.126-.011 0 0 .073.068.005-.874v-18.28h-20.078c0-6.992 0-13.447.944-19.845h38.767v-59.64h-19.929v39.908h-19.64c0 6.864 0 13.34-.944 19.743h-18.888v-40.084h19.525v-19.994h-59.535v-39.7h19.832v19.544h19.716v-39.817h-59.557V80.96h19.502c0-13.67 0-26.942.993-39.98 6.45-.018 12.9-.036 19.292.89v18.762h19.653V41.068c-6.807 0-13.272 0-19.664-.942-.022-6.397-.045-12.793.877-19.13h18.762V2.34h-19.565c0 6.474 0 12.606-.943 18.665h-19.252c0 7.065 0 13.47-.915 19.986-6.342.028-12.685.056-18.963-.861V21.073c-7.167 0-13.612 0-20-.944V2.367h-18.653v18.564c6.474 0 12.606 0 18.664.943.02 6.4.042 12.801-.88 19.131H241.2V81.17h18.445v20.113h-38.57c0 6.841 0 13.314-.945 19.722-6.4.024-12.8.047-19.136-.874V80.957h19.794V61.361h-59.434V81.31h19.301v19.977h-19.334v39.645c6.8 0 13.277 0 19.683.943v19.157h-59.641v19.893c26.81 0 53.258 0 79.64.945v38.774h19.927c0-13.478 0-26.598.943-39.648 6.4-.022 12.801-.043 19.131.88v19.204c13.293 0 26.178 0 38.995-.073 0 0-.073-.069-.005.874.027 13.063.054 26.126-.864 39.125h-19.192V221.22h-18.736v38.784h18.429v20.305h-58.908v19.364h-19.975v-19.597c-6.866 0-13.342 0-19.754-.945v-37.798H121.07c0 6.47 0 12.606-.944 18.672H80.937v-18.779H60.954v39.054c-6.99 0-13.6 0-19.973-.993v-38.219c-7.115 0-13.588 0-19.987-.943v-19.169h20.18v-39.63h39.9c0 6.795 0 13.266-.945 19.679H61.367v19.653h19.565c0-6.807 0-13.272.942-19.664 6.396-.022 12.793-.045 19.13.877v18.762h39.644v-19.564c-13.477 0-26.602 0-39.654-.944v-38.77H2.317v79.572c6.46 0 12.603 0 18.687.944v18.22H2.244v79.662h18.853v-59.626c6.857 0 13.32 0 19.895.916v58.65H61.22v-19.769c6.883 0 13.366 0 19.785.945v18.783h19.92c0-6.805 0-13.263.944-19.657m100.006 140h19.185v39.789h19.961v-39.787h18.78V439.85h-39.1v-39.513h-19.628c0 20.133 0 39.93-.944 59.669h-19.176v-59.8h-19.615v99.462h19.926v-19.921h19.668c0-6.87 0-13.347.943-19.752M13.517 360H2.283v139.716h138.433V360zM360 23.5v117.215h139.715V2.285H360zM2 76.5v64.213h138.713V2.287H2zm278 390.069v13.117h79.683V460.32H280zM219.287 40.996c.57-.598 1.632-1.192 1.637-1.795.097-12.28.072-24.562.072-36.982h-19.774V41c5.843 0 11.47 0 18.065-.003M215.4 260h5.344v-18.743H181.26V260zM180.254 40.943l1.074-19.735H161.21v19.788c6.16 0 12.118 0 19.043-.053M440 210.511v-9.225h-19.712v19.425H440zM428.525 161h-8.245v19.719h19.438V161z"/><path d="M359.927 220.937v19.902h20.078c0 6.445 0 12.363-.438 18.723-6.697.442-12.955.442-19.2.442v19.654h19.564V259.92c6.399.029 12.797.057 19.632.084.437-.002.367-.074.4.398.032 6.724.032 12.976.032 19.25h20.075c0-6.806 0-13.264-.035-19.686l-.104.11c6.398-.024 12.796-.047 19.632-.07.437 0 .364-.068.364-.068v39.746h-19.563v40.322h19.199c.437 0 .364-.068.364-.068.026 6.394.052 12.788-.36 19.624-6.716.442-12.993.442-19.32.442v20.123c6.705 0 13.17 0 19.69.458.08 6.803.106 13.149-.34 19.458-6.729-.037-12.986-.037-19.233-.037v19.656h19.563c0-6.8 0-13.262.472-19.696 6.742.03 13.011.03 19.378.03V380.28c-6.825 0-13.428 0-19.913-.497.1-6.951.084-13.407.067-19.863h59.744v139.723H380.207v-39.608h39.574v-19.993h-19.737v-19.821h-19.998v19.557H340.06v-19.707h-60.055l-.001-19.634c-.002-.437-.074-.367.398-.4 13.39-.032 26.307-.032 39.668-.032 0-26.971 0-53.523-.035-80.04-.035.035-.105.105.367.072 6.73-.032 12.989-.032 19.26-.032V279.93c-6.803 0-13.268 0-19.697.035.035.035.105.105.072-.367-.032-6.73-.032-12.987-.032-19.78H299.69V240.93c-6.834 0-13.298 0-19.725.035l.11.104c-.027-13.063-.054-26.126.357-39.631 13.355-.443 26.272-.443 39.2-.443v-19.663h-39.565v19.747h-39.063l-.001-19.642c-.002-.437-.074-.367.398-.4 6.406-.032 12.34-.032 18.647-.032v-20.029h19.6v-39.638h-19.917v19.592c-6.523 0-12.662 0-18.767.035.035.035.105.105.072-.367-.032-6.836-.032-13.2-.032-19.668-7.182 0-13.629 0-20.039.035l.11.104v-19.786h38.57V81.17H241.2V41.005l18.362-.001c.437-.002.367-.074.4.398.032 6.724.032 12.976.032 19.25h20.075c0-6.806 0-13.264-.035-19.686l-.104.11c6.342-.028 12.685-.056 19.45-.17.422-.087.34-.16.34-.16v40.215h-19.503v19.994h59.557v39.817H320.06v-19.545h-19.832v39.701h59.535v19.994h-19.525v40.084h19.326c.437 0 .364-.069.364-.069M400 355.503v-15.216h-59.713v59.426H400zM468.483 480h11.238v-39.72h-19.887v19.889h-19.55V480zM14.014 360h126.702v139.716H2.283V360zm24.487 120h82.213v-99.714H21.286V480z"/><path d="M360 23V2.285h139.715v138.43H360zm120 87.477V21.295h-99.704v99.408H480zM2 76V2.287h138.713v138.426H2zm105.492 45h13.222V21.286H21.286V121zM160.931 280.076h19.818v19.597h19.975v-19.364h58.908v-20.305h-18.429V221.22h18.736v19.785c6.65 0 12.921 0 19.664.032.473.032.4-.037.396.4-.004 13.13-.004 25.823-.004 38.633h40.075s-.07-.07-.072.367l-.068 39.633s.07-.07-.367-.072c-13.356-.003-26.276-.003-39.574-.003v-19.65H240.93c0 13.471 0 26.598.035 39.689l.104-.11-59.632.072c-.437.002-.367.074-.4-.398-.032-6.836-.032-13.2-.032-19.668-7.182 0-13.629 0-20.04.035.035.035.105.105.072-.367-.01-13.538.011-26.603-.002-39.632zM440.034 260.043c.035-6.114.035-12.266.035-18.817h39.622v-20.018H460.3v-59.912h19.517v39.53h19.9v59.018h-19.444v20.018h19.46v39.877h-19.622v-19.636h-20.018v-40.107c-6.667 0-12.945 0-19.695-.03-.472-.029-.4.04-.365.077M21.063 240.927H2.317v-79.573h98.677v39.209c0 .437.069.364.069.364-6.396.022-12.793.045-19.626.067-.437 0-.364.069-.364.069v-19.737H41.174v39.63h-20.18v19.607c0 .437.069.364.069.364M40.746 280.28h20.208v-39.054h19.983v18.78c13.322 0 26.255 0 39.626-.002.437-.002.367-.074.4.398.057 6.872.081 13.273-.366 19.639-6.835-.036-13.198-.036-19.667-.036 0 7.172 0 13.619.035 20.03.035-.035.105-.105-.367-.072-6.836.032-13.2.032-19.668.032 0 7.182 0 13.629.035 20.039l.104-.11H61.22v19.77H40.992c0-19.468 0-39.06-.086-59.074-.087-.423-.16-.34-.16-.34M200.931 121.076c6.4-.024 12.8-.047 19.672-.04.473.033.4-.036.396.401-.004 6.8-.004 13.164-.004 19.633h20.075s-.07-.07-.072.367c-.025 13.503-.046 26.568-.068 39.633l.11-.105c-6.365-.013-12.765.008-19.603.031-.437.002-.367.074-.4-.398-.032-6.724-.032-12.976-.032-19.25H200.93c0 6.806 0 13.264.035 19.686l.104-.11h-79.705v-19.893h59.641l-.001-19.594c-.002-.437-.074-.367.398-.4 6.836-.032 13.2-.032 19.668-.032 0-7.182 0-13.629-.035-20.039z"/><path d="M181.04 140.965c-6.441-.034-12.919-.034-19.718-.034v-39.645h19.334V81.309h-19.3V61.36h59.433v19.596h-19.794c0 13.316 0 26.245-.032 39.646-.032.473.037.4-.4.396-6.8-.004-13.164-.004-19.633-.004v20.075zM201.073 460.063v-59.727h19.628v39.513h39.1v20.148h-18.78v39.787H221.06v-39.79h-19.623c-.437 0-.364.069-.364.069M280.04 399.965c-6.438-.034-12.912-.034-19.772-.034v19.731h-18.92v-39.654h18.445V360.05h-18.788c0-6.644 0-12.912.032-19.652.032-.473-.037-.4.4-.396 13.022.004 25.607.004 38.57.004v20.15h19.65v20.12H279.93v19.795z"/><path d="M200.966 459.957c-.034 6.442-.034 12.92-.034 19.789h-19.668v19.921h-19.926v-99.462h19.615v59.8c6.633 0 12.904 0 19.648.029.472.029.4-.04.365-.077M20.957 241.034c6.436.034 12.91.034 20.024.034 0 12.775 0 25.497-.117 38.715-.118.497-.045.414-.014.379-6.432-.035-12.896-.035-19.753-.035v59.626H2.244V260.09h18.76c0-6.33 0-12.275.03-18.691.029-.472-.04-.4-.077-.365M280 466.082v-5.763h79.683v19.367H280zM360.034 221.043c.034-6.44.034-12.916.034-19.78h19.641v-39.909h19.929v59.641c-12.915 0-25.841 0-39.239-.029-.472-.029-.4.04-.365.077M121.035 260.04c.034-6.1.034-12.237.034-18.707h39.926c0 12.638 0 25.218-.032 38.27-.032.473.037.4-.4.396-6.835.023-13.234.05-19.6-.396.032-6.837.032-13.201.032-19.673H120.93zM180.965 339.96c-.034 13.084-.034 26.204-.034 39.682h-19.926l-.001-39.205c-.002-.437-.074-.367.398-.4 6.87-.01 13.27.011 19.668.033z"/><path d="M161.04 339.965c-13.184-.034-26.404-.034-40.035-.034l-.001-19.494c-.002-.437-.074-.367.398-.4 13.537-.01 26.603.011 39.668.033 0 0-.07-.07-.072.367-.025 6.836-.046 13.234-.068 19.633zM220.965 180.96c-.034 13.085-.034 26.205-.034 39.683h-19.926c0-12.948 0-25.86.032-39.246.032-.473-.037-.4.4-.396 6.836.026 13.234.047 19.633.069zM100.957 201.034c13.089.035 26.214.035 39.69.035v19.564h-39.642c0-6.231 0-12.497.029-19.234.029-.472-.04-.4-.077-.365M218.804 40.998c-6.111.002-11.74.002-17.582.002V2.22h19.774c0 12.419.025 24.7-.072 36.981-.005.603-1.067 1.197-2.12 1.797M214.912 260H181.26v-18.743h39.484V260zM80.966 200.957c-.034 6.429-.034 12.894-.034 19.7H61.367v-19.652c6.245 0 12.503 0 19.234.029.472.029.4-.04.365-.077M179.77 40.97c-6.441.026-12.399.026-18.56.026V21.208h20.118c-.365 6.711-.72 13.223-1.558 19.762M259.937 21.073h20.058c0 6.33 0 12.694-.032 19.53-.032.473.037.4-.4.396-6.836-.026-13.234-.047-19.633-.069l.105.11c.013-6.365-.008-12.765-.03-19.603.001-.437-.068-.364-.068-.364M320.063 40.927c-6.45.018-12.9.036-19.846-.063-.497-.118-.414-.045-.379-.014.035-6.374.035-12.779.035-19.844h19.69c.436 0 .363-.069.363-.069.023 6.396.046 12.792.068 19.626 0 .437.069.364.069.364"/><path d="M319.957 41.034c6.429.034 12.894.034 19.7.034v19.565h-19.652c0-6.245 0-12.503.029-19.234.029-.472-.04-.4-.077-.365M440.034 340.043c.035-6.428.035-12.893.035-19.7h19.564v19.653c-6.245 0-12.503 0-19.234-.03-.472-.029-.4.04-.365.077M100.924 319.931v19.721h-19.92c0-6.278 0-12.53.033-19.255.032-.473-.037-.4.4-.396 6.836.026 13.234.047 19.597.034zM440 211v9.71h-19.712v-19.424H440zM121.04 319.965c-6.366-.013-12.769.009-19.644-.002-.472-.032-.398.037-.395-.4.026-6.836.047-13.234.069-19.633 0 0-.07.07.367.072 6.838-.022 13.238-.046 19.604.4-.06 6.87-.086 13.27-.11 19.668zM429.018 161h10.7v19.719H420.28V161zM320.034 21.043c.034-6.096.034-12.228.034-18.702h19.565v18.654c-6.246 0-12.504 0-19.234-.029-.473-.029-.4.04-.365.077M400.035 260.04c.034-6.09.034-12.217.034-18.691h19.926c0 5.941 0 11.862-.032 18.254-.032.473.037.4-.4.396-6.836-.026-13.234-.047-19.633-.069zM260.043 20.966c-6.095-.035-12.227-.035-18.7-.035V2.367h18.653c0 5.91 0 11.836-.03 18.234-.029.472.04.4.077.365"/><path fill="#FFF" d="M280.402 400.037c-.472-6.438-.472-12.91-.472-19.763h19.727v-20.12h-19.65v-20.15c-12.963 0-25.548 0-38.605.033-.472-13.094-.472-26.221-.472-39.692h39.059v19.65c13.298 0 26.218 0 39.609-.032.472 26.519.472 53.07.472 80.042-13.36 0-26.278 0-39.668.032M400 356.003v43.71h-59.713v-59.426H400zm-39.942 4.729v19.064h19.74v-19.74c-6.475 0-12.763 0-19.74.676M241.402 181.037c-.45-13.032-.429-26.097-.44-39.635 6.108-.472 12.247-.472 18.77-.472v-19.592h19.917v39.638h-19.6v20.029c-6.307 0-12.241 0-18.647.032M467.986 480h-27.701v-19.831h19.549V440.28h19.887V480zM320.037 279.598c-13.08.472-26.192.472-40.042.472 0-12.81 0-25.503-.032-38.668 6.43-.472 12.894-.472 19.728-.472v18.887h20.314c0 6.794 0 13.052.032 19.781M280.034 201.043c.034-6.435.034-12.907.034-19.71h39.565v19.662c-12.928 0-25.845 0-39.234-.029-.472-.029-.4.04-.365.077M320.402 320.037c-.45-13.032-.429-26.097-.44-39.635 6.432-.472 12.897-.472 19.7-.472v40.075c-6.271 0-12.53 0-19.26.032M439.927 399.938v19.724h-19.563v-19.656h19.199c.437 0 .364-.068.364-.068"/><path fill="#FFF" d="M440.034 400.043c.009-6.31-.017-12.655-.129-19.423-.086-.423-.159-.34-.159-.34h20.031v19.716c-6.367 0-12.636 0-19.378-.03-.472-.029-.4.04-.365.077M259.963 41.402c6.366-.45 12.764-.429 19.635-.44.472 6.426.472 12.884.472 19.69h-20.075c0-6.274 0-12.526-.032-19.25M439.966 359.957c-.018 6.419-.002 12.875-.102 19.826-.118.497-.045.414-.014.38-6.433-.036-12.898-.036-19.604-.036v-20.123c6.328 0 12.605 0 19.355.03.472.029.4-.04.365-.077M241.037 140.598c-6.413.472-12.86.472-20.042.472 0-6.469 0-12.832-.032-19.668 6.413-.472 12.86-.472 20.042-.472 0 6.469 0 12.832.032 19.668M399.963 260.402c6.366-.45 12.764-.429 19.635-.44.472 6.426.472 12.884.472 19.69h-20.075c0-6.274 0-12.526-.032-19.25M379.966 259.957c-.035 6.428-.035 12.893-.035 19.7h-19.564v-19.653c6.245 0 12.503 0 19.234.03.472.029.4-.04.365-.077M38.002 480H21.286v-99.714h99.428V480zM41 436.5v23.213h59.713v-59.426H41zM480 110.972v9.731h-99.704V21.295H480zM409.534 101H459.7V41.3h-59.4V101zM106.994 121H21.286V21.286h99.428V121zM101 83.499V41.286H41.286v59.428H101zM121.402 320.037c-.447-6.366-.422-12.764-.398-19.6-.002-.437-.074-.367.398-.4 6.836-.032 13.2-.032 19.598-.032 0-3.877-.01-7.017.003-10.158.012-3.305.044-6.611.032-9.88-.035.035-.104.109-.104.109 6.398-.027 12.797-.054 19.667-.113.45 13.032.429 26.097.44 39.635-13.033.45-26.099.429-39.636.44M161.402 340.037c-.45-6.366-.429-12.764-.44-19.635 6.414-.472 12.86-.472 20.043-.472 0 6.469 0 12.832.032 19.668-6.366.45-12.765.429-19.635.44M100.598 299.963c.45 6.366.429 12.764.44 19.635-6.367.45-12.765.429-19.636.44-.472-6.414-.472-12.86-.472-20.043 6.469 0 12.832 0 19.668-.032"/><path fill="#FFF" d="M121.04 299.965c-6.365-.01-12.765.015-19.638.072-.472-6.413-.472-12.86-.472-20.032l19.633-.001c.437-.002.367-.074.4.398.01 6.87-.011 13.27-.033 19.668z"/><path fill="#FFF" d="M120.963 260.402c6.414-.472 12.86-.472 20.032-.472 0 6.472 0 12.836-.032 19.673-.032.473.037.4-.4.396-6.836-.026-13.234-.047-19.633-.069l.105.11c.01-6.365-.015-12.766-.072-19.638M181.402 141.037c-.472-6.413-.472-12.86-.472-20.042 6.469 0 12.832 0 19.668-.032.472 6.413.472 12.86.472 20.042-6.469 0-12.832 0-19.668.032M221.037 180.598c-6.366.45-12.764.429-19.635.44-.472-6.426-.472-12.884-.472-19.69h20.075c0 6.274 0 12.526.032 19.25"/><path d="M360.403 360.394c6.632-.338 12.92-.338 19.396-.338v19.74h-19.741c0-6.487 0-12.776.345-19.402M41 436v-35.713h59.713v59.426H41zM409.039 101H400.3V41.3h59.4V101zM101 83.998v16.716H41.286V41.286H101zM120.963 280.402c6.366-.45 12.764-.429 19.635-.44.449 3.274.417 6.58.405 9.885-.012 3.14-.003 6.281-.003 10.158-6.399 0-12.762 0-19.598.032-.45-6.366-.429-12.765-.44-19.635"/></svg>